<svg width="500" height="500" viewBox="0 0 500 500" fill="none" xmlns="http://www.w3.org/2000/svg">
<path fill-rule="evenodd" clip-rule="evenodd" d="M0 44C0 19.6995 19.6997 0 44 0H456C480.301 0 500 19.6995 500 44V456C500 480.301 480.301 500 456 500H210.827C215.932 492.184 221.009 483.075 226 472.5C241.622 439.402 284.289 364.621 320.872 364.621C357.459 364.621 387.214 397.599 387.214 434.198C387.214 444.671 395.703 453.163 406.171 453.163H463.041C473.514 453.163 481.997 444.671 481.997 434.198C481.997 345.315 409.721 273 320.872 273C237.916 273 125.158 409.544 110.576 500H44C19.6997 500 0 480.301 0 456V44ZM159.437 296C88.7915 296 31.2842 238.153 31 167.568C31 159.223 37.7661 152.461 46.1108 152.457H91.4429C99.7871 152.457 106.553 159.223 106.553 167.568C106.553 196.733 130.28 220.451 159.441 220.451C188.597 220.451 212.324 196.733 212.324 167.568V149.437C212.324 78.6174 269.941 21 340.761 21C411.584 21 469.197 78.6174 469.197 149.437C469.197 157.781 462.435 164.547 454.086 164.547H408.754C400.41 164.547 393.644 157.781 393.644 149.437C393.644 120.276 369.921 96.5492 340.756 96.5492C311.596 96.5492 287.869 120.276 287.869 149.437V167.568C287.869 238.387 230.256 296 159.437 296Z" fill="#0A0A0A"/>
</svg>
